# xmcd
#
# Track frame offsets:
#	150
#	18771
#	36903
#	51592
#	68118
#	86479
#	101106
#	114622
#	129438
#	144177
#
# Disc length: 2023 seconds
#
# Revision: 0
# Processed by: cddbd v1.5PL3 Copyright (c) Steve Scherf et al.
# Submitted via: dBpowerAMP V4.0
#
DISCID=8507e50a
DTITLE=Kenny Chesne - Pickin' On
DYEAR=1900
DGENRE=Country
TTITLE0=She Thinks My Tractor's Sexy
TTITLE1=That's Why I'm Here
TTITLE2=She's Got It All
TTITLE3=You Had Me From Hello
TTITLE4=Young
TTITLE5=No Shoes, No Shirt, No Problem
TTITLE6=How Forever Feels
TTITLE7=The Good Stuff
TTITLE8=When I Close My Eyes
TTITLE9=East Tennessee Kid (Traditional composition)
EXTD=Guitars-Pat McGrath\nDobro-Lee Hanover\nFiddle, Mandolin-Joe Smith\nBanjo-David Talbot\nUpright Bass-Kevin grantt\n
EXTT0=
EXTT1=
EXTT2=
EXTT3=
EXTT4=
EXTT5=
EXTT6=
EXTT7=
EXTT8=
EXTT9=
PLAYORDER=
